<?xml version="1.0" encoding="utf-8"?>
<!-- Generator: Adobe Illustrator 24.1.3, SVG Export Plug-In . SVG Version: 6.00 Build 0)  -->
<svg version="1.1"
	 id="svg8" sodipodi:docname="Wiring Diagram.svg" xmlns:cc="http://creativecommons.org/ns#" xmlns:dc="http://purl.org/dc/elements/1.1/" xmlns:inkscape="http://www.inkscape.org/namespaces/inkscape" xmlns:rdf="http://www.w3.org/1999/02/22-rdf-syntax-ns#" xmlns:sodipodi="http://sodipodi.sourceforge.net/DTD/sodipodi-0.dtd" xmlns:svg="http://www.w3.org/2000/svg"
	 xmlns="http://www.w3.org/2000/svg" xmlns:xlink="http://www.w3.org/1999/xlink" x="0px" y="0px" viewBox="0 0 595.3 215"
	 style="enable-background:new 0 0 595.3 215;" xml:space="preserve">
<style type="text/css">
	.st0{fill:none;}
	.st1{fill:none;stroke:#000000;stroke-width:2.292;stroke-miterlimit:14.8322;}
	.st2{font-family:'ArialMT';}
	.st3{font-size:16.1063px;}
	.st4{stroke:#000000;stroke-width:0.1951;stroke-miterlimit:14.8322;}
	.st5{fill:url(#path866_1_);stroke:#000000;stroke-width:8.915175e-02;stroke-miterlimit:14.8322;}
	.st6{fill:none;stroke:#000000;stroke-width:0.2915;stroke-miterlimit:14.8322;}
	.st7{fill:none;stroke:#000000;stroke-width:0.4184;stroke-miterlimit:14.8322;}
	.st8{fill:url(#path2331_1_);stroke:#000000;stroke-width:8.915175e-02;stroke-miterlimit:14.8322;}
	.st9{font-size:7.5327px;}
	.st10{stroke:#000000;stroke-width:0.846;stroke-miterlimit:3.3841;}
	.st11{stroke:#000000;stroke-width:3.708;stroke-miterlimit:14.8322;}
	.st12{fill:none;stroke:#000000;stroke-width:2.115;stroke-miterlimit:14.8322;}
</style>
<pattern  y="841.9" width="595.3" height="841.9" patternUnits="userSpaceOnUse" id="pattern2320" viewBox="0 -841.9 595.3 841.9" style="overflow:visible;">
	<g>
		<rect y="-841.9" class="st0" width="595.3" height="841.9"/>
	</g>
</pattern>
<pattern  y="841.9" width="595.3" height="841.9" patternUnits="userSpaceOnUse" id="pattern2338" viewBox="0 -841.9 595.3 841.9" style="overflow:visible;">
	<g>
		<rect y="-841.9" class="st0" width="595.3" height="841.9"/>
	</g>
</pattern>
<sodipodi:namedview  bordercolor="#666666" borderopacity="1.0" id="base" inkscape:current-layer="layer1" inkscape:cx="416.36761" inkscape:cy="892.49997" inkscape:document-units="mm" inkscape:guide-bbox="true" inkscape:pageopacity="0.0" inkscape:pageshadow="2" inkscape:snap-global="false" inkscape:window-height="1138" inkscape:window-maximized="1" inkscape:window-width="1920" inkscape:window-x="1912" inkscape:window-y="-8" inkscape:zoom="0.8911532" pagecolor="#ffffff" showgrid="false" showguides="true">
	</sodipodi:namedview>
<g id="layer1" inkscape:groupmode="layer" inkscape:label="Layer 1">
	<g id="g4177" transform="matrix(1.3081155,0,0,1.3081155,-39.107144,-42.623589)">
		<rect id="rect826" x="105.3" y="105.6" class="st1" width="78.9" height="49.5"/>
		<text transform="matrix(0.7645 0 0 0.7645 118.8537 133.3865)" class="st2 st3">Hardware</text>
		<path id="path854" inkscape:connector-curvature="0" class="st4" d="M310.1,140.2C310.1,140.2,310.1,140.2,310.1,140.2
			c-0.1,0.1,0.1,0.2,0.3,0.2c0.1,0,0.1-0.1-0.1-0.1C310.3,140.2,310.2,140.2,310.1,140.2L310.1,140.2z M286.6,140.2l-1,0.9l-1,0.9
			l0,1c0,0.5,0.1,1,0.2,1.1c0,0,0.1,0,0.2,0l-0.1-1.2l0,0c-0.1-0.7,0-0.8,0.4-1.1c0.3-0.2,0.7-0.6,0.9-0.9c0.4-0.4,0.5-0.5,1.6-0.4
			c2.3,0.1,2.2,0-0.2-0.2L286.6,140.2z M310.9,140.6c0,0,0,0.1,0,0.2c0,0.2,0,0.3,0,0.4c0.1,0.1,0.1-0.1,0.1-0.4
			C310.9,140.7,310.9,140.6,310.9,140.6L310.9,140.6z M291,140.6C290.9,140.6,291,140.7,291,140.6c0.1,0.1,0.4,0.2,0.6,0.1l0.4-0.1
			l-0.5,0C291.3,140.6,291,140.6,291,140.6L291,140.6C291,140.6,291,140.6,291,140.6L291,140.6z M258,140.8
			C257.9,140.8,257.9,140.8,258,140.8c-0.7,0-1,0.3-1.4,1.4c-0.2,0.5-0.3,1.1-0.3,1.6l0,0.9l-2-0.1c-1.9-0.1-3.5-0.3-7.1-0.9v0.4
			c4.3,0.7,6,0.8,9.8,0.9l0.5,0l0.2,1.7c0.1,0.9,0.2,1.7,0.3,1.7c0.1,0,0.1,0.4,0.2,0.9c0.1,0.9,0.1,0.9-0.3,1l-0.4,0.1l-0.2-0.9
			c-0.2-1.3-0.3-2.2-0.2-2.3c0.3-0.3-0.1-0.5-1.6-0.5c-2.3-0.1-2.2,0-2.1-0.2c0.1-0.1,0.2-0.3,0.2-0.4c0.1-0.2,0.1-0.2,0.2-0.2
			c0.1,0.1,0.4,0.1,0.7,0.1c0.3,0,0.6,0,0.6,0.1c0.1,0.1,1.3,0.1,1.4,0c0.1-0.1-0.6-0.2-1.8-0.3c-0.8,0-1.2,0-1.4,0.3
			c-0.3,0.3-0.4,0.3-0.6,0c-0.1-0.1-0.3-0.2-0.3-0.1c-0.1,0.1,0,0.2,0.1,0.2c0.2,0.1,0.2,0.1,0.1,0.2c-0.3,0.1-0.8-0.4-0.5-0.6
			c0.1-0.1,0.1-0.1,0-0.2c-0.1,0-0.3,0.1-0.5,0.3c-0.2,0.2-0.3,0.3-0.4,0.2c-0.3-0.3-0.4-0.3-0.5-0.1c-0.1,0.3-0.6-0.1-0.5-0.4
			c0-0.1,0.1-0.1,0.2,0.1c0.1,0.1,0.1,0.2,0.1,0.1c0-0.1,0.1-0.2,0.3-0.2c0.3-0.1,0.4-0.1-1.5-0.4c-0.5-0.1-1.2-0.2-2-0.3v0.2
			c0.4,0.1,0.7,0.1,0.7,0.2c0.1,0.1,0.4,0.1,0.7,0.1c0.7,0,0.8,0.3,0.2,0.5c-0.2,0.1-0.4,0.2-0.4,0.2c0,0.1-0.1,0.1-0.3,0.1
			c-0.3,0-0.3-0.1-0.3-0.4c0-0.2,0-0.4-0.1-0.3c-0.2,0.2-0.3,0.3-0.5,0.3v0.8c0.5,0.1,1.2,0.2,2,0.2c0.4,0,1,0.1,1.3,0.2
			c0.5,0.1,2.7,0.3,3.5,0.3c0.1,0,0.8,0,1.4,0l1.2,0l0,0.5c0,0.3,0.1,1,0.2,1.6l0.2,1.2l-1.2,0.2c-0.6,0.1-1.8,0.3-2.6,0.4
			c-1.1,0.1-1.4,0.2-1.2,0.4c0.1,0.1,0.4,0.2,0.6,0.1c0.9-0.2,2.5-0.4,3.4-0.5c0.5-0.1,1.2-0.2,1.5-0.2l0.6-0.1l0,0.8
			c0,0.4,0,0.8-0.1,0.9c-0.1,0.1-0.4,0.1-0.8,0.1c-0.4,0-1.4,0.1-2.2,0.2c-1.2,0.2-1.4,0.3-1.2,0.4c0.2,0.1,0.8,0.1,1.8-0.1
			c0.8-0.1,1.5-0.2,1.5-0.2c0,0,0.1,0.5,0.1,1.1c0.1,0.6,0.2,1.2,0.3,1.3c0.2,0.3,0,0.3,3.6-0.1c3-0.4,3.6-0.4,2.2-0.1
			c-1.1,0.2-1.1,0.2-1.5,0.8c-0.2,0.3-0.6,0.9-0.9,1.2c-0.4,0.4-0.4,0.6-0.4,1.3c0,0.6,0.1,0.8,0.4,1c0.3,0.2,0.4,0.2,0.8-0.2
			l0.5-0.4l-0.4,0.5c-0.5,0.6-0.3,0.8,0.6,0.6c0.5-0.1,0.8-0.3,1.1-0.6c0.4-0.5,0.6-0.5,6.3-1.2c7.6-1,7.3-1,7.7-1.2
			c0.5-0.3,1.4-1.3,1.6-1.9c0.3-0.7,0-1.2-1-1.9c-0.6-0.4-1-0.6-1.3-0.6c-1.1,0-1.9,0.5-1.9,1.2c0,0.3,0,0.4-0.5,0.5
			c-0.8,0.2-3,0.2-3.2,0c-0.3-0.3-0.1-0.6,0.6-1.2c0.6-0.5,0.9-0.5,4.5-0.9c3.9-0.4,3.9-0.4,4.5-1c0.3-0.3,0.6-0.7,0.6-0.8
			c0.2-0.4-0.4-2.7-0.7-3c-0.1-0.1-0.5-0.3-0.7-0.3l-0.4-0.1l0.5-0.6l0.5-0.6l-0.4-1.7c-0.2-0.9-0.5-1.7-0.6-1.8
			c-0.1-0.1-2.1,0-4.5,0.2c-2.4,0.2-4.4,0.3-4.5,0.3c-0.1,0-0.1-0.3-0.2-0.6c0-0.3-0.2-0.5-0.2-0.6c-0.1-0.1-2.6,0-5.7,0.1
			c-4.7,0.2-5.6,0.2-5.6-0.1C258.7,141,258.4,140.8,258,140.8L258,140.8z M258,141c0.2,0,0.4,0.1,0.5,0.3c0.1,0.2,0.2,0.4,0.3,0.4
			c0.1,0.1,1.4,0.1,2.8,0c4.3-0.2,6.5-0.3,7.5-0.3l0.9,0l0.2,0.6c0.1,0.3,0.2,0.6,0.3,0.7c0.1,0.1,2.1,0,4.5-0.2
			c2.4-0.2,4.4-0.3,4.4-0.3c0,0,0.2,0.7,0.4,1.6l0.3,1.6l-0.5,0.6c-0.4,0.5-0.5,0.6-0.3,0.7c0.1,0-0.1,0.1-0.5,0.1
			c-0.4,0-0.8,0.1-0.8,0c0,0,0.2-0.1,0.6-0.1c0.3,0,0.6-0.1,0.5-0.2c-0.1-0.1-0.7,0-1.4,0c-2.5,0.3-6.2,0.5-6.3,0.4
			c-0.3-0.3,0-0.4,1.5-0.6c0.9-0.1,1.6-0.2,1.7-0.3c0.1-0.1-3.2,0.2-3.4,0.3c-0.2,0.1-0.2,0.6,0.1,0.9c0,0.1,0.1,0.1,0.2,0.1
			c0,0,0,0,0-0.1c0,0,0.2,0,0.4,0c0.3,0,0.3,0,0,0.1c-0.1,0-0.2,0-0.2,0c0.5,0.1,1.6,0,4.2-0.2c4.7-0.4,4.8-0.4,5,0.7
			c0,0.3,0.1,0.8,0.2,1.1c0.2,0.7,0.2,0.7-0.5,1.3c-0.4,0.4-0.7,0.5-1.5,0.6c-0.5,0-2,0.2-3.2,0.4c-1.2,0.2-2.6,0.3-3,0.3
			c-0.6,0-0.7,0-0.7-0.3c0-0.3,0.2-0.3,1.5-0.4c0.8-0.1,1.6-0.2,1.6-0.2c0.1-0.2-3.1,0.2-3.3,0.4c-0.1,0.1-0.1,0.3,0,0.5
			c0.1,0.2,0,0.4-0.1,0.6c-0.2,0.2-0.2,0.2-0.2,0c0-0.2,0-0.2-0.2,0.2c-0.2,0.3-0.3,0.4-0.3,0.3c0-0.1-0.1-0.1-0.1,0
			c0,0.1-0.1,0.2-0.2,0.1s-0.2,0-0.3,0.1s-0.1,0.2,0,0.3c0.1,0.1,0.1,0.2,0.1,0.3c0,0.1-0.1,0.1-0.1,0c0-0.1-0.1-0.2-0.1-0.1
			c0,0.1,0.1,0.3,0.3,0.5c0.3,0.3,0.6,0.3,2.2,0.2c1-0.1,1.9-0.2,2-0.3c0.1-0.1,0.1-0.3,0.1-0.5c0-0.6,0.5-1,1.4-1.1
			c0.8-0.1,0.8,0,1.6,0.6c0.7,0.6,0.8,0.7,0.8,1.2c0,0.4-0.1,0.6-0.6,1.3c-0.4,0.5-0.8,0.8-1.1,0.9c-0.2,0.1-2.2,0.3-4.3,0.6
			c-2.1,0.3-5,0.7-6.5,0.9c-2.6,0.4-2.6,0.4-3.2,1c-0.3,0.4-0.7,0.6-0.8,0.5c-0.1,0-0.1-0.2,0-0.3c0.2-0.2,0.2-0.2,0.1,0.1
			c0,0.2,0,0.2,0.3-0.1c0.2-0.3,0.3-0.4,0.1-0.4c-0.1,0-0.4,0.1-0.7,0.4l-0.5,0.5l0.4-0.5c0.3-0.4,0.3-0.5,0.2-0.6
			c-0.1-0.1-0.2-0.1-0.3,0c-0.1,0.1-0.1,0-0.1-0.2c0.1-0.5-0.2-0.6-0.5-0.3c-0.1,0.2-0.3,0.2-0.3,0.1c0-0.1,0-0.3,0.1-0.4
			c0.1-0.1,0.1-0.3,0.1-0.4c-0.1-0.1,0.1-0.5,0.5-1.1l0.6-0.8l1.2-0.2c1.4-0.3,2.7-0.5,3.9-0.6c0.5-0.1,1-0.2,1-0.2
			c0.2-0.2,0-0.8-0.2-1c-0.2-0.1-0.2-0.1-0.1,0.3c0.1,0.2,0.1,0.5,0,0.6c-0.2,0.2-1.2,0.2-1.5,0.1c-0.2-0.1-2.1,0.1-4.2,0.4
			c-2.7,0.3-4,0.4-4.2,0.3c-0.2-0.1-0.3-0.1-0.4,0.1c-0.2,0.4-0.3,0-0.4-1.2c0-0.8,0-0.9,0.3-1.1c0.5-0.2,0.6,0.2,0.3,0.6
			c-0.2,0.2-0.2,0.4-0.2,0.4c0.1,0.1,0.3-0.1,0.4-0.3c0.3-0.3,0.3-0.6,0-2.6c-0.2-1.2-0.4-2.8-0.5-3.5c-0.2-1.6-0.5-3.6-0.6-3.7
			c0,0,0,0.2,0,0.6l0.1,0.6l-0.5,0l-0.5,0l0-0.9c0-0.9,0.3-2,0.9-2.5C257.5,141.1,257.8,141,258,141L258,141z M271.7,147.6
			c-0.1,0-0.1,0-0.2,0C271.6,147.5,271.6,147.6,271.7,147.6z M286.5,141.5c-0.1,0-0.1,0.5,0,1.1c0,0.3,0,0.6,0,0.8l0.1,0.7
			c0.1-0.3,0.1-0.6,0.1-1.3C286.7,142.2,286.6,141.6,286.5,141.5C286.5,141.5,286.5,141.5,286.5,141.5L286.5,141.5z M324,142.1
			C324,142.1,324,142.1,324,142.1c-0.7,0.1-4.4,1.3-5.7,1.8c-2.5,1.1-3.8,1.3-6.2,1.2l-1.1-0.1l-0.1-0.5c-0.1-0.8-0.2-0.8-0.2,0.1
			c0,1.2,0.2,2.1,0.3,2.4c0.2,0.4,0.4,1.8,0.3,1.9c-0.1,0.1-0.1,0.2,0,0.3c0.1,0.1,0.2,0.4,0.2,0.7c0.1,0.4,0.2,0.6,0.4,0.7
			c0.3,0.1,0.4,0.3,0.6,0.9c0.3,0.9,0.2,1.2-0.3,1.5c-0.2,0.1-0.4,0.3-0.3,0.3c0.1,0.1,0.5-0.1,0.8-0.5c0.2-0.3,0.2-0.5,0-1.2
			c-0.1-0.5-0.2-0.9-0.2-0.9c0,0,1-0.1,2.2-0.1c2,0,4.9-0.1,6.5-0.1c0.5,0,0.8-0.1,0.9-0.2c0.1-0.2-1.4-0.2-5-0.1
			c-2.8,0.1-5.2,0.1-5.2,0c-0.2-0.2,0.2-0.3,1.1-0.3c1.5,0,2.5,0,2.3-0.1c-0.1-0.1-0.6-0.1-1.1-0.1c-0.5,0-1,0-1.1,0
			c0,0-0.4,0-0.7,0c-0.5,0-0.7,0-0.6-0.2c0-0.2,0.3-0.2,0.7-0.2c3.3,0.1,10.6,0,10.7-0.2c0.1-0.1,0.1-0.2,0-0.2c0,0-1.1,0-2.4,0
			c-2.9,0.1-7.6,0.1-8.6,0c-0.7,0-0.7-0.1-0.8-0.4c-0.2-0.8-0.3-1.3-0.2-1.3c1,0.1,3.4,0,3.9-0.1c0.4-0.1,1.9-0.6,3.4-1.2
			c2.5-1,6-2.1,6.8-2.2c0.3,0,0.3-0.1,0.1-0.2c-0.1-0.1-0.5-0.1-0.8,0c-1.6,0.5-3.6,1-4.4,1.4c-0.5,0.2-1,0.3-1.2,0.3
			c-0.1,0-0.2,0-0.1,0c0.1,0.1-2.7,1.3-2.8,1.2c-0.1,0,0.6-0.3,1.2-0.6c0.2-0.1,0.3-0.2,0.3-0.3c0-0.1,0.1-0.1,0.1-0.1
			c0.1,0.1,1-0.2,1-0.4c0-0.1,0.1-0.1,0.3-0.1c0.2,0,0.6-0.1,1-0.3s1.1-0.4,1.5-0.5c0.4-0.2,0.7-0.3,0.6-0.4c-0.1-0.1-0.3,0-0.4,0.1
			c-0.2,0.1-0.5,0.2-0.6,0.2c-0.2,0-0.4,0-0.4,0.1c0,0.1-0.4,0.2-0.8,0.3c-1.3,0.4-2.4,0.8-2.4,1c0,0.1-0.1,0.1-0.1,0.1
			c-0.1-0.1-1,0.2-1.2,0.4c-0.2,0.2-1.8,0.3-2.5,0.2c-0.3,0-0.7-0.1-0.9-0.1c-1.2,0-1.9,0-2-0.3c-0.1-0.2-0.1-0.2,0.4-0.2
			c3.3,0.1,4.1,0,6.8-1.2c0.8-0.3,2.5-0.9,3.7-1.3c1.2-0.4,2.2-0.7,2.2-0.8C324.3,142.1,324.2,142.1,324,142.1L324,142.1z
			 M310.6,142.7c0,0,0,0.1,0,0.2c0,0.2,0,0.3,0,0.4c0.1,0.1,0.1-0.1,0.1-0.4C310.7,142.8,310.7,142.7,310.6,142.7L310.6,142.7z
			 M324.9,142.8c0,0-0.1,0-0.2,0c-0.2,0-0.4,0.1-0.4,0.2c0,0.1,0,0.1,0.2,0.1c0.2,0,0.4-0.1,0.4-0.2
			C325,142.8,325,142.8,324.9,142.8L324.9,142.8z M322.9,143.4c0,0-0.1,0-0.1,0c-0.1,0-0.1,0.1,0,0.2c0.1,0.1,0.2,0.1,0.2,0
			C323,143.5,323,143.4,322.9,143.4C323,143.4,323,143.4,322.9,143.4L322.9,143.4z M278.8,144.1c0,0,0,0.1,0,0.2c0,0.2,0,0.3,0,0.4
			c0.1,0.1,0.1-0.1,0.1-0.4C278.8,144.2,278.8,144.1,278.8,144.1L278.8,144.1z M272.4,144.3c-0.2,0-0.3,0-0.3,0
			c-0.1,0.1,0.6,0.2,1.2,0.1c0.6-0.1,0.6-0.1-0.2-0.1C272.8,144.3,272.6,144.3,272.4,144.3L272.4,144.3z M284.9,144.4
			c-0.2,0.3-0.2,0.4-0.1,0.6c0.1,0.1,0.1,0.3,0,0.4c-0.1,0.1-0.1,1.5,0,3.6c0.1,1.9,0.3,3.5,0.3,3.5c0,0,0.4,0.1,0.8,0.2
			c0.4,0.1,1.2,0.4,1.7,0.7s1.1,0.5,1.3,0.6c0.4,0,1.4-0.5,1.8-0.8c0.3-0.3,0.6-0.4,1.7-0.3c0.7,0,1.4,0,1.6-0.1
			c0.1-0.1,0.3-0.1,0.3,0c0.1,0.3,1,0.3,1.1,0c0.1-0.2,0.2-0.2,0.3,0c0.1,0.1,0.5,0.2,1,0.2c0.8,0,0.8,0,0.9,0.5
			c0.1,0.7,0.3,0.8,1.8,0.8c0.7,0,1.6,0.1,1.9,0.1c0.3,0,1.8,0.1,3.4,0.1c3.8,0.1,3.8,0.1,4.2,0.7c0.4,0.7,0.5,0.8,0.8,0.5
			c0.1-0.1,0.1-0.6-0.1-1.3c-0.1-0.6-0.2-1.1-0.2-1.1c0,0,0.3,0,0.6-0.1c1.3-0.1-0.5-0.2-7.7-0.4c-1.1,0-1.1-0.1-1.3-0.5
			c-0.1-0.4-0.2-0.4-0.6-0.5c-0.2,0-0.4,0-0.4,0.1c0,0.1,0.1,0.1,0.3,0.1c0.2-0.1,0.3,0,0.4,0.4c0.2,0.6,0,0.6,3.9,0.7
			c1.3,0,2.8,0.1,3.4,0.1l1,0l0.3,1.1c0.1,0.6,0.3,1.1,0.2,1.1c0,0-0.2-0.2-0.3-0.4c-0.2-0.2-0.4-0.5-0.5-0.6
			c-0.2-0.2-2.8-0.3-5.8-0.4c-1.7,0-4.3-0.2-4.6-0.2c-0.1,0-0.3-0.2-0.3-0.5c-0.1-0.6-0.2-0.7-1.1-0.7c-0.7,0-0.8-0.1-1.3-0.5
			c-0.5-0.5-0.6-0.5-0.8-0.4c-0.1,0.1-0.2,0.1-0.2,0.1l-0.5,0.6l-0.1,0c0,0,0,0,0,0l-0.7,0.1l-0.2,0c0,0,0,0,0,0
			c-0.4,0-1.1-0.1-1.5-0.1l-0.7-0.1c0,0.1,0,0.1,0,0.2c-0.1,0.4-0.1,0.5-0.7,0.8c-0.9,0.5-1.2,0.4-2.3-0.2c-1-0.6-1.4-0.7-2-0.7
			c-0.3,0-0.4-0.2-0.6-3.3c-0.1-1.3-0.1-2.4-0.1-3L284.9,144.4z M271.9,144.6c-0.1,0-0.1,0.1,0,0.3c0.1,0.4,0.2,0.4,0.2,0
			C272,144.7,272,144.6,271.9,144.6L271.9,144.6z M286.7,144.7l0,0.3l-0.1,0.1c0,0,0,0,0,0c0,0.2,0,0.5-0.1,0.5
			c-0.2,0.3-0.2,1.1,0.1,1.3c0.2,0.1,0.3,0.8,0.3,1.9c0,0.9,0.1,1.7,0.2,1.7c0.2,0-0.1-3-0.4-3.8c-0.1-0.3-0.2-0.7-0.1-0.8
			C286.9,145.7,286.9,144.8,286.7,144.7C286.7,144.7,286.7,144.7,286.7,144.7L286.7,144.7z M276.2,144.9c-0.1,0-0.2,0-0.2,0
			c-0.1,0.1,0.1,0.1,0.4,0.1c0.3-0.1,0.3-0.1,0-0.1C276.3,144.9,276.2,144.9,276.2,144.9L276.2,144.9z M251.2,145.4
			C251.2,145.4,251.2,145.4,251.2,145.4c-0.2,0-0.2,0.1-0.1,0.2c0.2,0.2,0.3,0.1,0.2-0.1C251.3,145.4,251.3,145.4,251.2,145.4
			L251.2,145.4z M249.6,145.4c0.2,0,0.3,0.1,0.4,0.4c0.2,0.3,0.3,0.4,0.7,0.4c0.3,0,0.6,0,0.7-0.1c0.1-0.1,0.4,0,0.5,0.1l0.3,0.3
			l-0.5,0c-0.9-0.1-2.6-0.3-2.4-0.4c0.1,0,0.1-0.2,0-0.3c-0.2-0.3-0.2-0.3,0.2-0.3C249.5,145.4,249.6,145.4,249.6,145.4L249.6,145.4
			z M248.7,145.9c0.1,0,0.1,0,0.2,0c0.2,0.1,0.2,0.1,0,0.1c-0.3,0.1-0.4,0-0.3-0.1C248.6,145.9,248.7,145.9,248.7,145.9L248.7,145.9
			z M257.3,146c0,0-0.1,0-0.1,0.1c-0.1,0.1-0.2,0.1-0.3,0.1c-0.1-0.1-0.1,0-0.1,0.2c0,0.2,0.1,0.3,0.1,0.3
			C257.2,146.6,257.5,146.2,257.3,146C257.4,146,257.4,146,257.3,146L257.3,146z M312.2,146.1c0.1,0,0.2,0,0.2,0.1
			c0,0.1,0,0.2,0.1,0.1c0.1-0.1,0.4-0.1,0.9,0c0.4,0.1,1.3,0.1,1.9,0c0.6-0.1,1,0,0.8,0c-0.5,0.2-1.7,0.3-3,0.3
			c-1.3,0-1.7-0.1-1.7-0.2c0-0.1,0.2-0.2,0.5-0.2C312,146.1,312.1,146.1,312.2,146.1L312.2,146.1z M277,147c0.1,0,0.1,0,0.1,0
			c0,0-0.5,0.1-1.2,0.1c-0.7,0.1-1.3,0.1-1.3,0c0,0,0.5-0.1,1.2-0.1C276.3,147,276.8,147,277,147L277,147z M279.2,148.3
			c-0.1,0-0.1,0.1,0,0.4l0.1,0.5l-2.4,0.2c-1.3,0.1-2.4,0.3-2.5,0.3c-0.1,0.1,4.4-0.3,4.8-0.4C279.6,149.3,279.6,148.6,279.2,148.3
			C279.3,148.3,279.3,148.3,279.2,148.3L279.2,148.3z M304.9,148.6c-0.1,0-0.2,0-0.2,0c0,0,0.2,0.1,0.5,0.1c0.3,0,0.6,0,0.6,0
			c0,0-0.2-0.1-0.5-0.1C305.2,148.6,305.1,148.6,304.9,148.6L304.9,148.6z M273.8,148.9c0,0-0.1,0-0.1,0c-0.3,0-0.6,0-0.7,0.1
			c-0.1,0.1,0.9,0.1,1.1,0C274.2,148.9,274.1,148.9,273.8,148.9L273.8,148.9z M272.3,149.2c-0.1,0-0.1,0.1,0,0.3
			c0.1,0.4,0.2,0.4,0.2,0C272.4,149.3,272.3,149.2,272.3,149.2L272.3,149.2z M318.5,149.4c-0.1,0-0.2,0-0.4,0
			c-0.4,0.1-0.4,0.1-0.1,0.1c0.2,0,0.4,0,0.5,0C318.6,149.5,318.6,149.4,318.5,149.4L318.5,149.4z M319.5,149.4
			c-0.3,0-0.5,0-0.6,0.1c-0.2,0.1,0,0.2,0.9,0.2c0.4,0,0.8,0,0.9-0.1C320.9,149.5,320.1,149.4,319.5,149.4L319.5,149.4z
			 M321.5,149.5c-0.2,0-0.3,0-0.3,0.1c0.2,0.1,0.8,0.2,0.8,0C322,149.6,321.8,149.5,321.5,149.5
			C321.6,149.5,321.5,149.5,321.5,149.5L321.5,149.5z M317.3,149.5c-0.1,0-0.1,0-0.2,0c-0.2,0-0.4,0.1-0.3,0.1c0,0,0.3,0.1,0.5,0.1
			c0.2,0,0.4-0.1,0.3-0.1C317.6,149.5,317.4,149.5,317.3,149.5L317.3,149.5z M316.3,149.6c-0.2,0-0.5,0.1-0.6,0.2
			c-0.1,0.1,0.1,0.1,0.4,0.1c0.3,0,0.5-0.1,0.5-0.2C316.6,149.7,316.5,149.6,316.3,149.6L316.3,149.6z M272.9,149.7c0,0-0.1,0-0.1,0
			c-0.1,0.1-0.1,0.1,0,0.2c0,0,0.1,0,0.2,0c0.1,0,0.1-0.1,0-0.2C272.9,149.7,272.9,149.7,272.9,149.7L272.9,149.7z M295.6,151.6
			C295.5,151.6,295.5,151.6,295.6,151.6c-0.1,0-0.1,0-0.1,0c-0.1,0.1,0.2,0.2,0.6,0.2l0.4-0.1l-0.5-0.1
			C295.8,151.6,295.7,151.6,295.6,151.6L295.6,151.6z M298.5,151.6l-0.7,0c-0.4,0-0.7,0-0.7,0c-0.1,0.1,0.1,0.1,0.7,0L298.5,151.6z
			 M257.1,151.6c-0.2,0-0.4,0-0.7,0.1c-0.5,0.1-1.5,0.2-2.1,0.2c-0.6,0.1-1.2,0.2-1.2,0.2c-0.3,0.3,0.9,0.3,3.1-0.1
			C257.3,151.8,257.6,151.6,257.1,151.6L257.1,151.6z M299.1,151.6c-0.2,0-0.3,0-0.3,0c0,0,0.1,0.1,0.2,0.1s0.3,0,0.3,0
			C299.3,151.7,299.2,151.6,299.1,151.6L299.1,151.6z M253.3,151.7c-0.2,0-0.4,0.1-0.5,0.1c-0.1,0.1,0.1,0.1,0.3,0.1
			c0.2,0,0.4-0.1,0.5-0.1C253.6,151.7,253.5,151.7,253.3,151.7L253.3,151.7z M294.8,151.7L294.8,151.7
			C294.8,151.7,294.8,151.8,294.8,151.7c0,0.2-0.1,0.3-0.2,0.3c-0.1,0,0-0.1,0.1-0.2C294.7,151.8,294.8,151.7,294.8,151.7
			L294.8,151.7z M311.1,153C311,153,311,153,311.1,153c-0.1,0.1,0,0.1,0.2,0.2c0.2,0,0.4,0,0.4,0c0,0-0.1-0.1-0.3-0.1
			C311.3,153,311.1,153,311.1,153L311.1,153z M262.9,153.1c-0.3,0-0.9,0-1.7,0.1c-1.2,0.1-2.2,0.3-2.3,0.3c-0.1,0.1,3.7-0.2,4.1-0.4
			C263.2,153.1,263.1,153.1,262.9,153.1L262.9,153.1z M266,154.5l-0.6,0.1c-0.4,0-0.7,0.1-0.7,0c-0.1-0.1,0.1-0.1,0.7-0.1L266,154.5
			z M261.1,157.1c0,0,0,0.1,0,0.3c-0.1,0.2-0.2,0.4-0.2,0.4C260.7,157.7,260.9,157.3,261.1,157.1
			C261.1,157.1,261.1,157.1,261.1,157.1L261.1,157.1z M261,158.2C261,158.2,261,158.2,261,158.2c0.2,0.1,0.3,0.1,0.3,0.2
			c0,0.1-0.1,0-0.2-0.1C260.9,158.2,260.9,158.2,261,158.2L261,158.2z M261.8,158.6C261.8,158.6,261.8,158.6,261.8,158.6
			c-0.1,0.2-0.2,0.4-0.3,0.4c-0.1,0,0-0.1,0.1-0.2C261.7,158.6,261.8,158.6,261.8,158.6L261.8,158.6z"/>
		
			<pattern  id="path866_1_" xlink:href="#pattern2320" patternTransform="matrix(6.353470e-02 3.668178e-02 0.4729 -0.819 -2506.1912 -18093.334)">
		</pattern>
		<path id="path866" inkscape:connector-curvature="0" class="st5" d="M290.9,152.7v-1.2l9.3,0.3l0.7,0.9l8.1,0.4l0.4,2.3l-0.3,0.2
			l-1-1l-10.1-0.8l-0.7-1l-3.2-0.4L290.9,152.7z M287.2,151.3l3.2,1.7l-1.2,0.7l-2.6-1.1l-1-0.2L287.2,151.3z M286.6,141.5l-1.6,1.1
			l0.7,8.8l1.5-0.9l-0.1-2.4l-0.3-1.5l-0.2-1.9L286.6,141.5z"/>
		<path id="path868" inkscape:connector-curvature="0" class="st6" d="M292.5,148L309,149l0.9-0.7l-0.8-5.1l-10.2-1.3l-6.7,0.4"/>
		<path id="path870" inkscape:connector-curvature="0" class="st6" d="M294,148.1l-1.5,0.1l7.3-0.6l10.2,0.7"/>
		<path id="path872" inkscape:connector-curvature="0" class="st7" d="M289,140.4l10.1,0.8l0.1-0.9l0.9-0.5l10.3,0.6l0.4,0.1
			l0.2,1.6l-0.7,0.9l0.9,4.7"/>
		
			<pattern  id="path2331_1_" xlink:href="#pattern2338" patternTransform="matrix(6.343028e-02 1.699608e-02 0.3204 -1.1958 -4043.9299 -22047.4199)">
		</pattern>
		<path id="path2331" inkscape:connector-curvature="0" class="st8" d="M262.1,158.8l2.5-1.4l14.2-2.3l-1.3,1.5l-13.3,1.7l-1.7,1
			l-0.9,0.1L262.1,158.8z M271.6,147.5l7.8-0.8l1.2-1.3l-8.3,0.9l-1.2,0.4v0.5L271.6,147.5z M272.3,151.1l8.9-1.2l-1,1.4l-7.8,0.9
			l-0.3-0.7L272.3,151.1z M259.1,153.6l-1.2,1.6l9.9-1.1l1,0.1l-0.5-1.1l-0.8-0.5L259.1,153.6z M256.7,147.1l1.2,6.9l0.8-0.9
			l-1.1-8.6l-0.2,2.2L256.7,147.1z"/>
		<text transform="matrix(0.7645 0 0 0.7645 249.1253 168.2037)" class="st2 st9">2-Pin, Molex 5557 Connector</text>
		<path class="st0" d=""/>
		<g id="g3145" transform="translate(-13,0)">
			<circle id="circle3139" class="st10" cx="256.8" cy="152.2" r="0.5"/>
			<circle id="circle3141" class="st10" cx="254.5" cy="152.2" r="0.5"/>
			<circle id="circle3143" class="st10" cx="252.3" cy="152.2" r="0.5"/>
		</g>
		<path id="path2344" inkscape:connector-curvature="0" sodipodi:nodetypes="cc" class="st11" d="M184.6,152.2"/>
		<path class="st0" d=""/>
		<g id="g2632" transform="translate(-13,0)">
			<circle id="circle2626" class="st10" cx="256.8" cy="144.6" r="0.5"/>
			<circle id="circle2628" class="st10" cx="254.5" cy="144.6" r="0.5"/>
			<circle id="circle2630" class="st10" cx="252.3" cy="144.6" r="0.5"/>
		</g>
		<g id="g2715">
			<circle id="circle2709" class="st10" cx="283.1" cy="118" r="0.5"/>
			<circle id="circle2711" class="st10" cx="285.3" cy="118" r="0.5"/>
			<circle id="circle2713" class="st10" cx="287.6" cy="118" r="0.5"/>
		</g>
		<path id="path2346" inkscape:connector-curvature="0" sodipodi:nodetypes="cccc" class="st11" d="M281.1,118"/>
		<path class="st0" d=""/>
		<g id="g2623">
			<circle id="circle2617" class="st10" cx="283.7" cy="110.5" r="0.5"/>
			<circle id="circle2619" class="st10" cx="285.9" cy="110.5" r="0.5"/>
			<circle id="circle2621" class="st10" cx="288.2" cy="110.5" r="0.5"/>
		</g>
		<path id="path2348" inkscape:connector-curvature="0" sodipodi:nodetypes="cc" class="st11" d="M281.7,110.5"/>
		<path id="path2361" inkscape:connector-curvature="0" d="M293.2,108c-0.2,0-0.5,0-0.8,0v0.4c1.3,0,2.4,0,2.7,0
			c1,0,1.1,0.1,1.2,0.3c0.1,0.3,0.1,0.3,0.3,0c0.2-0.3,0.3-0.3,2-0.2c1,0,2.1,0.1,2.5,0.1c0.4,0,1.2,0.1,1.8,0.1c0.7,0,1.6,0,2.2,0
			c0.6,0,2,0.1,3.3,0.1l2.2,0.1l-0.1,0.5c-0.1,0.3-0.1,0.6,0.1,0.7c0.2,0.2,0.2,0.9,0.1,1.1c0,0-0.1,0,0-0.1c0-0.2,0-0.2-0.1-0.1
			c-0.1,0.1-0.1,0.3-0.1,0.4c0,0.3,0,0.3,0.4,0.3c0.6,0.1,0.9-0.1,0.6-0.3c-0.1-0.1-0.3-0.2-0.4-0.2c-0.4,0,0-0.4,0.5-0.5l0.5-0.1
			l-0.6,0c-0.9,0-0.7-0.2,0.2-0.1c0.8,0,0.9,0,0.8-0.3c0-0.1,0.1-0.1,0.4-0.1c0.3,0,0.4,0,0.3,0.1c-0.2,0-0.2,0.1-0.1,0.2
			c0.1,0.2,0.1,0.2-0.2,0.3c-0.3,0.1-0.3,0.1-0.2,0.3c0.2,0.2,0.5,0.2,0.7,0c0.1-0.1,0.1-0.2,0-0.3c-0.1,0,0-0.1,0.2-0.1
			c0.2,0,0.4,0.1,0.5,0.1c0,0.1,0.1,0.1,0.2,0.1c0.1,0,0.1-0.1,0-0.1c-0.4,0-0.1-0.1,0.6-0.1c0.4,0,0.6,0,0.4,0.1
			c-0.2,0-0.4,0.1-0.5,0.1c-0.1,0-0.1,0-0.2,0c0,0-0.1,0-0.1,0c0,0.1-0.1,0.1-0.2,0.1c-0.1,0-0.2,0-0.2,0.1c0,0.2,0.2,0.4,0.3,0.2
			c0-0.1,0-0.1-0.1-0.2c-0.3-0.1-0.3-0.1,1.2-0.1c0.7,0,1.7,0,2.3,0c0.6,0,0.8,0,0.4,0.1c-0.5,0.1-0.6,0.1-0.5,0.3
			c0.1,0.2,0,0.2,2.9,0.1c1.3-0.1,2.4-0.1,2.6-0.1c0.3,0,0.3,0.1-0.1,0.1c-0.2,0-0.3,0.1-0.3,0.1c0,0,0.1,0.1,0.3,0.1
			c0.2,0,0.2,0,0.2,0.1c-0.1,0.1-0.7,0.1-0.7,0c0,0-0.2-0.1-0.3-0.1c-0.2,0-0.2,0-0.2,0.1c0.1,0.2,0.6,0.4,0.7,0.2c0,0,0.3,0,0.6,0
			l0.5,0.1l-0.4,0.1c-0.8,0.2-2.5,0.1-2,0c0.2-0.1,0.1-0.1-0.4-0.1c-0.3,0-0.5,0-0.4,0.1c0.1,0,0.2,0.1,0.3,0
			c0.3-0.1,0.5,0.1,0.2,0.2c-0.2,0.1,0.6,0.2,1.6,0.1c0.6-0.1,0.7,0,0.9,0.2c0.1,0.1,0.2,0.3,0.1,0.4c0,0-0.1,0-0.1,0
			c0-0.1-0.1-0.1-0.1,0c-0.1,0.1-3.5,0-4.8-0.1c-0.1,0-0.2,0-0.1-0.1c0,0,0.6,0,1.2,0c0.6,0,1.2,0,1.2,0c0-0.1-0.2-0.1-0.4-0.1
			c-0.2,0-0.4,0-0.5,0c-0.1-0.1-1.4-0.2-1.5-0.1c0,0-0.1,0-0.2-0.1c-0.1-0.1-0.2-0.1-0.4,0c-0.1,0-0.4,0-0.5,0
			c-0.3-0.1,0.2-0.1,1.8-0.2c0.5,0,0.8-0.1,0.8-0.1c-0.1,0-0.4-0.1-0.8,0c-0.4,0-1,0.1-1.4,0.1c-0.7,0-0.7,0-0.6,0.3
			c0.1,0.2,0.1,0.2-0.4,0.2c-0.3,0-0.5-0.1-0.5-0.1c0,0-0.4-0.1-0.8-0.1c-0.5-0.1-0.7-0.1-0.6-0.2c0.1-0.1,0.1-0.1,0-0.2
			c-0.1,0-0.2,0-0.2,0.1c-0.1,0.1-0.2,0.1-0.2,0.1c-0.1-0.1-1.6-0.3-2.4-0.3c-0.3,0-0.6,0-0.7-0.1c0,0-0.2,0-0.4,0
			c-0.2,0.1-0.3,0-0.4,0c-0.1-0.2-0.4,0.2-0.5,0.6c-0.1,0.4-0.1,0.4-0.6,0.4c-0.6,0-0.8-0.1-0.2-0.2c0.3,0,0.4,0,0.2-0.1
			c-0.3-0.1-0.6,0-0.7,0.1c0,0.1-0.2,0.1-0.4,0c-0.2,0-0.3,0-0.3,0c-0.1,0.1-1.8,0.1-1.9,0c0,0,0.1-0.1,0.3-0.1l0.3-0.1l-0.4,0
			c-0.2,0-0.4,0-0.3,0.1c0.1,0.1-0.1,0.3-0.2,0.2c-0.1,0-0.4-0.1-0.7-0.1c-0.9,0-2.6,0-2.7-0.1c0,0-0.2,0-0.3,0c-0.1,0-0.6,0-1,0
			c-1.3-0.1-2.6-0.1-4.2-0.2c-2.3,0-2.8,0-2.9-0.1c0,0,0.1-0.1,0.3-0.1l0.3-0.1l-0.3,0c-0.2,0-0.4,0-0.4,0.1c0,0.1-0.8,0.1-2,0.1
			v0.3c2.9,0,8.8,0.1,10.7,0.3c1,0.1,2.5,0.1,3.4,0.1c0.9,0,2.1,0,2.7,0c0.6,0,1.2,0,1.4-0.1c0.3-0.1,0.3-0.2,0.4-0.5l0.1-0.4l1,0
			c0.5,0,2,0.2,3.2,0.4c3.1,0.5,7.1,0.8,8.3,0.6c0.4-0.1,0.5-0.1,0.8-0.6c0.3-0.6,0.3-0.9-0.1-1.1c-0.1,0-0.1-0.2,0-0.3
			c0.2-0.2,0-0.6-0.2-0.5c-0.2,0.1-0.3-0.2-0.2-0.4c0.2-0.5-0.8-0.7-2.3-0.4c-0.5,0.1-3.4,0-5.2-0.1c-1.1-0.1-2.7-0.2-3.6-0.3
			l-1.6-0.1l-0.1-0.4c-0.1-0.2-0.2-0.4-0.3-0.5c-0.2-0.2-1.5-0.2-6.2-0.3c-1.8,0-3.7-0.1-4.3-0.1c-1.1-0.1-5.1-0.2-5.3-0.2
			c0,0-0.5,0-1,0C293.8,108,293.5,108,293.2,108L293.2,108z M313.9,109.9c0.1,0,0.1,0.1,0,0.2c-0.1,0.2-0.2,0.1-0.1,0
			C313.8,110,313.9,109.9,313.9,109.9L313.9,109.9z M314.5,109.9c0.1,0,0.2,0,0.2,0.1c0,0.1,0.1,0.1,0.2,0c0.1-0.1,0.2,0,0.2,0
			c0,0.1,0.1,0.1,0.2,0c0.1,0,0.3-0.1,0.6,0c0.3,0,0.4,0.1,0.2,0.1c-0.1,0-0.3,0.1-0.3,0.2c-0.1,0.1-0.2,0.2-0.3,0.2
			c-0.1,0-0.1,0,0-0.1c0.3-0.1,0-0.3-0.3-0.3c-0.2,0-0.3,0-0.3-0.1c0,0-0.1,0-0.2,0c-0.1,0-0.3,0-0.4,0
			C314.2,110,314.2,110,314.5,109.9C314.4,109.9,314.5,109.9,314.5,109.9L314.5,109.9z M312.2,110c0.2,0,0.4,0,0.6,0.1
			c0.3,0.1,0.2,0.1-0.3,0.2c-0.3,0.1-0.5,0.1-0.4,0.1c0.2,0,0.2,0.1-0.2,0.2c-0.5,0.1-1.1,0-1.1-0.2
			C310.9,110.1,311.5,109.9,312.2,110L312.2,110z M322.9,110.2c0.1,0,0.1,0,0.2,0c0,0,0,0.2-0.2,0.3c-0.1,0.1-0.3,0.2-0.3,0.2
			c0,0-0.1-0.1-0.2,0c-0.1,0-0.1,0.1,0,0.1c0.1,0,0.1,0.1,0,0.2c-0.1,0.1-0.7,0.2-1.3,0.2c-0.6,0-1,0-0.8,0c0.3-0.1,0.3-0.1-0.1-0.1
			c-0.2,0-0.4-0.1-0.4-0.1c-0.1-0.1-0.7-0.1-0.7,0.1c0,0.1-0.1,0.1-0.3,0.1c-0.2,0-0.2,0,0-0.1c0.1,0,0.2-0.1,0.2-0.1
			c0-0.1,2.5-0.2,2.6,0c0,0.1,0.1,0.1,0.1,0c0-0.1,0.1-0.1,0.2,0c0.1,0.1,0.2,0,0.3-0.2C322.4,110.4,322.7,110.2,322.9,110.2
			L322.9,110.2z M320.7,110.2c0.2,0,0.2,0,0.1,0.1c-0.2,0.2-0.3,0.2-0.3,0C320.5,110.3,320.6,110.2,320.7,110.2L320.7,110.2z
			 M319.3,110.2c0.1,0,0,0,0,0.1c-0.1,0.1-0.2,0.1-0.2,0.1c-0.1,0,0,0,0-0.1C319.1,110.3,319.2,110.2,319.3,110.2z M319.8,110.2
			c0.1,0,0.1,0.1,0,0.2c-0.1,0.2-0.2,0.1-0.1,0C319.7,110.3,319.7,110.2,319.8,110.2L319.8,110.2z M314.8,110.3c0.2,0,0.2,0,0.1,0.1
			c-0.1,0.1-0.2,0.1-0.2,0c-0.1-0.1-0.1-0.1-0.1-0.1C314.5,110.3,314.6,110.3,314.8,110.3z M314.2,110.3c0.1,0,0,0-0.1,0.1
			c-0.1,0-0.2,0.1-0.2,0.2c0,0.1-0.1,0.1-0.1,0.1c-0.2,0,0.1-0.3,0.4-0.3C314.1,110.3,314.2,110.3,314.2,110.3L314.2,110.3z
			 M312.6,110.4c-0.1,0-0.1,0,0,0.1c0.1,0.1,0,0.2-0.3,0.2c-0.2,0-0.3,0.1-0.3,0.2c0.1,0.1,0.1,0.1-0.1,0.1c-0.2,0-0.2,0.1-0.1,0.1
			c0.1,0,0.2,0,0.4,0c0.1-0.1,0.2-0.1,0.2-0.2c0,0,0.1-0.1,0.3-0.2c0.2-0.1,0.3-0.1,0.2-0.1c-0.1,0-0.1-0.1-0.1-0.1
			C312.8,110.5,312.7,110.4,312.6,110.4C312.6,110.4,312.6,110.4,312.6,110.4L312.6,110.4z M317.5,110.7c0.1,0,0.1,0,0.1,0
			c0,0-0.1,0.1-0.3,0.1c-0.2,0-0.3,0-0.4,0c0,0,0.1-0.1,0.3-0.1C317.3,110.7,317.4,110.7,317.5,110.7L317.5,110.7z M319,110.7
			c0.1,0,0,0-0.1,0.1c-0.1,0-0.2,0.1-0.2,0.2c0,0.1-0.1,0.1-0.1,0.1c-0.2,0,0.1-0.3,0.4-0.3C318.9,110.7,318.9,110.7,319,110.7
			L319,110.7z M318,110.7C318.3,110.7,318.3,110.7,318,110.7c-0.2,0.1-0.4,0.1-0.3,0C317.8,110.7,317.9,110.7,318,110.7L318,110.7z
			 M316.4,110.7c0.1,0,0.1,0,0.1,0c0,0-0.1,0.1-0.3,0.1c-0.2,0-0.3,0-0.4,0c0,0,0.1-0.1,0.3-0.1
			C316.2,110.8,316.3,110.7,316.4,110.7L316.4,110.7z M323.5,111l-0.5,0.1c-0.4,0.1-0.5,0.1-0.3,0.2c0.2,0.1,0.2,0.1-0.1,0.1
			c-0.4,0.1-0.4,0.1-0.2-0.2c0.1-0.1,0.4-0.2,0.7-0.2L323.5,111z M319.7,111.1C319.7,111.1,319.7,111.1,319.7,111.1
			c0.1,0-0.1,0.1-0.3,0.1c-0.2,0-0.4,0-0.5,0c0,0,0.1-0.1,0.4-0.1C319.4,111.1,319.6,111.1,319.7,111.1L319.7,111.1z M323.7,111.1
			c0,0,0,0.1,0,0.2c0,0.1,0,0.3,0.1,0.3c0.1,0,0.1,0,0,0.1c-0.1,0-0.2,0-0.2,0C323.6,111.6,323.6,111.2,323.7,111.1
			C323.7,111.1,323.7,111.1,323.7,111.1L323.7,111.1z M313.4,111.3C313.4,111.3,313.4,111.3,313.4,111.3c0,0.2-0.3,0.3-0.8,0.3
			c-0.4,0-0.7,0.1-0.6,0.1c0.4,0,0.3,0.2-0.1,0.2c-0.2,0,0,0.1,0.4,0.1c0.8,0,1.8-0.2,1.4-0.2c-0.1,0-0.2-0.1-0.3-0.3
			C313.4,111.3,313.4,111.3,313.4,111.3L313.4,111.3z M321.7,111.3C322,111.3,322,111.3,321.7,111.3c-0.2,0.1-0.4,0.1-0.3,0
			C321.4,111.3,321.6,111.3,321.7,111.3L321.7,111.3z M317.1,111.3c-0.1,0-0.3,0-0.5,0c-0.4,0-0.6,0.1-0.5,0.1
			c0.2,0.1,0.1,0.1-0.3,0.2c-0.4,0.1-0.5,0.1-0.3,0.2c0.2,0.1,0.2,0.1,0,0.1v0c-0.2,0-0.2,0.1,0.1,0.2c0.2,0.1,0.3,0.1,0.2-0.1
			c-0.1-0.2-0.1-0.2,0.3-0.3c0.4-0.1,0.6,0,0.4,0.2c-0.1,0.1-0.2,0.1-0.4,0c-0.2-0.1-0.2-0.1-0.2,0.1c0.1,0.1,0.5,0.1,1.1,0
			c0.6-0.1,1.3-0.1,1.6-0.1c0.8,0,2.2-0.1,1.9-0.2c-0.1,0-0.9,0-1.7,0c-0.8,0-1.6,0.1-1.8,0.1c-0.2,0-0.4,0-0.4,0
			c0,0,0.1-0.1,0.4-0.1c0.4,0,0.5,0,0.4-0.2C317.5,111.4,317.5,111.3,317.1,111.3L317.1,111.3z M319.9,111.4c0.1,0,0.1,0,0.1,0
			c0,0-0.1,0.1-0.3,0.1c-0.2,0-0.3,0-0.4,0c0,0,0.1-0.1,0.3-0.1C319.7,111.4,319.8,111.4,319.9,111.4L319.9,111.4z M315.2,111.4
			c-0.1,0-0.1,0-0.2,0c-0.3,0-0.5,0.1-0.5,0.1c0.1,0,0.3,0.1,0.6,0c0.3,0,0.5-0.1,0.5-0.1C315.6,111.4,315.4,111.4,315.2,111.4
			L315.2,111.4z M318.7,111.4C318.7,111.4,318.7,111.4,318.7,111.4c0.1,0-0.1,0.1-0.3,0.1c-0.2,0-0.4,0-0.5,0c0,0,0.1-0.1,0.4-0.1
			C318.4,111.4,318.6,111.4,318.7,111.4L318.7,111.4z M310.8,111.5c0.2,0,0.4,0,0.5,0.1c0.1,0.1,0.1,0.1-0.1,0.1
			c-0.1,0-0.2,0-0.3-0.1c0-0.1-0.1-0.1-0.2,0c-0.1,0-0.2,0-0.2,0C310.5,111.5,310.6,111.5,310.8,111.5L310.8,111.5z M317.1,111.5
			c0.2,0,0.3,0,0.3,0.1c0,0-0.1,0.1-0.3,0.1c-0.6,0-0.8-0.1-0.3-0.1C316.9,111.5,317,111.5,317.1,111.5L317.1,111.5z M313.4,111.6
			c0.2,0,0.1,0-0.2,0.1c-0.2,0.1-0.5,0.1-0.6,0.1c-0.2,0-0.1-0.1,0.3-0.1C313.1,111.6,313.3,111.6,313.4,111.6L313.4,111.6z
			 M315,111.7C314.9,111.7,314.9,111.7,315,111.7c-0.2,0-0.3,0.1-0.2,0.1c0.1,0.1,0.4,0,0.4-0.1C315.1,111.7,315,111.7,315,111.7
			L315,111.7z M314.5,111.7c0,0-0.1,0-0.1,0c-0.3,0-0.3,0,0,0.2c0.2,0.1,0.3,0.2,0.4,0.1c0.1,0,0.1,0,0,0c-0.1,0-0.1-0.1-0.1-0.2
			C314.6,111.7,314.6,111.7,314.5,111.7L314.5,111.7z M324,111.8C324.1,111.8,324.1,111.8,324,111.8c0,0.1,0.1,0.2,0.1,0.2
			c0.1,0,0.1,0.1,0.1,0.1c0,0.1-0.1,0.1-0.2,0c-0.1-0.1-0.2-0.2-0.4-0.2c-0.2,0-0.2,0,0.1-0.1C323.9,111.8,324,111.8,324,111.8
			L324,111.8z M324.5,112.4l-0.3,0.3c-0.1,0.2-0.3,0.3-0.3,0.3c0,0,0-0.1-0.1-0.2c-0.1-0.2-0.1-0.2,0.3-0.3L324.5,112.4z
			 M298.4,112.4C298.4,112.4,298.3,112.4,298.4,112.4c-0.1,0-0.1,0.1-0.1,0.1c0.1,0,0.2,0.1,0.2,0c0.1,0,0.1-0.1,0-0.1
			C298.5,112.4,298.4,112.4,298.4,112.4L298.4,112.4z M295.7,112.4c-0.2,0-0.4,0-0.4,0c-0.1,0.1,0.8,0.1,1,0c0.1,0-0.1-0.1-0.4-0.1
			C295.8,112.4,295.7,112.4,295.7,112.4L295.7,112.4z M310.7,112.4c0.1,0,0.1,0,0,0.1c-0.1,0.1,0,0.1,0,0.1c0.1,0,0.1,0,0.1,0.1
			c0,0-0.1,0.1-0.2,0.1c-0.1,0.1-0.2,0-0.1-0.2C310.6,112.5,310.7,112.4,310.7,112.4L310.7,112.4z M299.4,112.4c-0.1,0-0.2,0-0.2,0
			c-0.1,0.1,0.5,0.1,0.7,0.1c0.2,0,0.1-0.1-0.2-0.1C299.6,112.4,299.5,112.4,299.4,112.4L299.4,112.4z M301.3,112.4c0,0-0.1,0-0.1,0
			c-0.1,0-0.1,0.1,0,0.1c0.1,0,0.1,0,0.2,0C301.3,112.5,301.4,112.5,301.3,112.4C301.3,112.4,301.3,112.4,301.3,112.4L301.3,112.4z
			 M300.6,112.5c0,0-0.1,0-0.1,0c-0.3,0-0.3,0,0,0.1c0.2,0,0.3,0,0.3,0C300.8,112.5,300.7,112.5,300.6,112.5L300.6,112.5z
			 M303,112.6c-0.1,0-0.2,0-0.2,0c-0.1,0.1,0.4,0.2,0.7,0.1c0.2-0.1,0.2-0.1-0.2-0.1C303.2,112.6,303.1,112.6,303,112.6L303,112.6z
			 M305.4,112.6c-0.2,0-0.5,0-0.5,0.1c0,0,0.1,0.1,0.4,0.1c0.4,0,0.7,0,0.6-0.1C305.8,112.6,305.6,112.6,305.4,112.6L305.4,112.6z
			 M304.3,112.6c0,0-0.1,0-0.1,0c-0.3,0-0.3,0,0,0.1c0.2,0,0.3,0,0.3,0C304.5,112.6,304.4,112.6,304.3,112.6L304.3,112.6z
			 M317.7,112.8c0,0,0.2,0,0.4,0l0.4,0l-0.3,0.1C318,112.9,317.8,112.9,317.7,112.8C317.7,112.8,317.7,112.7,317.7,112.8
			L317.7,112.8z"/>
		<path id="path2371" inkscape:connector-curvature="0" d="M293.2,115.8c-0.2,0-0.5,0-0.8,0v0.4c1.3,0,2.4,0,2.7,0
			c1,0,1.1,0.1,1.2,0.3c0.1,0.3,0.1,0.3,0.3,0c0.2-0.3,0.3-0.3,2-0.2c1,0,2.1,0.1,2.5,0.1c0.4,0,1.2,0.1,1.8,0.1c0.7,0,1.6,0,2.2,0
			c0.6,0,2,0.1,3.3,0.1l2.2,0.1l-0.1,0.5c-0.1,0.3-0.1,0.6,0.1,0.7c0.2,0.2,0.2,0.9,0.1,1.1c0,0-0.1,0,0-0.1c0-0.2,0-0.2-0.1-0.1
			c-0.1,0.1-0.1,0.3-0.1,0.4c0,0.3,0,0.3,0.4,0.3c0.6,0.1,0.9-0.1,0.6-0.3c-0.1-0.1-0.3-0.2-0.4-0.2c-0.4,0,0-0.4,0.5-0.5l0.5-0.1
			l-0.6,0c-0.9,0-0.7-0.2,0.2-0.1c0.8,0,0.9,0,0.8-0.3c0-0.1,0.1-0.1,0.4-0.1c0.3,0,0.4,0,0.3,0.1c-0.2,0-0.2,0.1-0.1,0.2
			c0.1,0.2,0.1,0.2-0.2,0.3c-0.3,0.1-0.3,0.1-0.2,0.3c0.2,0.2,0.5,0.2,0.7,0c0.1-0.1,0.1-0.2,0-0.3c-0.1,0,0-0.1,0.2-0.1
			c0.2,0,0.4,0.1,0.5,0.1c0,0.1,0.1,0.1,0.2,0.1c0.1,0,0.1-0.1,0-0.1c-0.4,0-0.1-0.1,0.6-0.1c0.4,0,0.6,0,0.4,0.1
			c-0.2,0-0.4,0.1-0.5,0.1c-0.1,0-0.1,0-0.2,0c0,0-0.1,0-0.1,0c0,0.1-0.1,0.1-0.2,0.1c-0.1,0-0.2,0-0.2,0.1c0,0.2,0.2,0.4,0.3,0.2
			c0-0.1,0-0.1-0.1-0.2c-0.3-0.1-0.3-0.1,1.2-0.1c0.7,0,1.7,0,2.3,0c0.6,0,0.8,0,0.4,0.1c-0.5,0.1-0.6,0.1-0.5,0.3
			c0.1,0.2,0,0.2,2.9,0.1c1.3-0.1,2.4-0.1,2.6-0.1c0.3,0,0.3,0.1-0.1,0.1c-0.2,0-0.3,0.1-0.3,0.1c0,0,0.1,0.1,0.3,0.1
			c0.2,0,0.2,0,0.2,0.1c-0.1,0.1-0.7,0.1-0.7,0c0,0-0.2-0.1-0.3-0.1c-0.2,0-0.2,0-0.2,0.1c0.1,0.2,0.6,0.4,0.7,0.2c0,0,0.3,0,0.6,0
			l0.5,0.1l-0.4,0.1c-0.8,0.2-2.5,0.1-2,0c0.2-0.1,0.1-0.1-0.4-0.1c-0.3,0-0.5,0-0.4,0.1c0.1,0,0.2,0.1,0.3,0
			c0.3-0.1,0.5,0.1,0.2,0.2c-0.2,0.1,0.6,0.2,1.6,0.1c0.6-0.1,0.7,0,0.9,0.2c0.1,0.1,0.2,0.3,0.1,0.4c0,0-0.1,0-0.1,0
			c0-0.1-0.1-0.1-0.1,0c-0.1,0.1-3.5,0-4.8-0.1c-0.1,0-0.2,0-0.1-0.1c0,0,0.6,0,1.2,0c0.6,0,1.2,0,1.2,0c0-0.1-0.2-0.1-0.4-0.1
			c-0.2,0-0.4,0-0.5,0c-0.1-0.1-1.4-0.2-1.5-0.1c0,0-0.1,0-0.2-0.1c-0.1-0.1-0.2-0.1-0.4,0c-0.1,0-0.4,0-0.5,0
			c-0.3-0.1,0.2-0.1,1.8-0.2c0.5,0,0.8-0.1,0.8-0.1c-0.1,0-0.4-0.1-0.8,0c-0.4,0-1,0.1-1.4,0.1c-0.7,0-0.7,0-0.6,0.3
			c0.1,0.2,0.1,0.2-0.4,0.2c-0.3,0-0.5-0.1-0.5-0.1c0,0-0.4-0.1-0.8-0.1c-0.5-0.1-0.7-0.1-0.6-0.2c0.1-0.1,0.1-0.1,0-0.2
			c-0.1,0-0.2,0-0.2,0.1c-0.1,0.1-0.2,0.1-0.2,0.1c-0.1-0.1-1.6-0.3-2.4-0.3c-0.3,0-0.6,0-0.7-0.1c0,0-0.2,0-0.4,0
			c-0.2,0.1-0.3,0-0.4,0c-0.1-0.2-0.4,0.2-0.5,0.6c-0.1,0.4-0.1,0.4-0.6,0.4c-0.6,0-0.8-0.1-0.2-0.2c0.3,0,0.4,0,0.2-0.1
			c-0.3-0.1-0.6,0-0.7,0.1c0,0.1-0.2,0.1-0.4,0c-0.2,0-0.3,0-0.3,0c-0.1,0.1-1.8,0.1-1.9,0c0,0,0.1-0.1,0.3-0.1l0.3-0.1l-0.4,0
			c-0.2,0-0.4,0-0.3,0.1c0.1,0.1-0.1,0.3-0.2,0.2c-0.1,0-0.4-0.1-0.7-0.1c-0.9,0-2.6,0-2.7-0.1c0,0-0.2,0-0.3,0c-0.1,0-0.6,0-1,0
			c-1.3-0.1-2.6-0.1-4.2-0.2c-2.3,0-2.8,0-2.9-0.1c0,0,0.1-0.1,0.3-0.1l0.3-0.1l-0.3,0c-0.2,0-0.4,0-0.4,0.1c0,0.1-0.8,0.1-2,0.1
			v0.3c2.9,0,8.8,0.1,10.7,0.3c1,0.1,2.5,0.1,3.4,0.1c0.9,0,2.1,0,2.7,0c0.6,0,1.2,0,1.4-0.1c0.3-0.1,0.3-0.2,0.4-0.5l0.1-0.4l1,0
			c0.5,0,2,0.2,3.2,0.4c3.1,0.5,7.1,0.8,8.3,0.6c0.4-0.1,0.5-0.1,0.8-0.6c0.3-0.6,0.3-0.9-0.1-1.1c-0.1,0-0.1-0.2,0-0.3
			c0.2-0.2,0-0.6-0.2-0.5c-0.2,0.1-0.3-0.2-0.2-0.4c0.2-0.5-0.8-0.7-2.3-0.4c-0.5,0.1-3.4,0-5.2-0.1c-1.1-0.1-2.7-0.2-3.6-0.3
			l-1.6-0.1l-0.1-0.4c-0.1-0.2-0.2-0.4-0.3-0.5c-0.2-0.2-1.5-0.2-6.2-0.3c-1.8,0-3.7-0.1-4.3-0.1c-1.1-0.1-5.1-0.2-5.3-0.2
			c0,0-0.5,0-1,0C293.8,115.8,293.5,115.8,293.2,115.8L293.2,115.8z M313.9,117.7c0.1,0,0.1,0.1,0,0.2c-0.1,0.2-0.2,0.1-0.1,0
			C313.8,117.7,313.9,117.7,313.9,117.7L313.9,117.7z M314.5,117.7c0.1,0,0.2,0,0.2,0.1c0,0.1,0.1,0.1,0.2,0c0.1-0.1,0.2,0,0.2,0
			c0,0.1,0.1,0.1,0.2,0c0.1,0,0.3-0.1,0.6,0c0.3,0,0.4,0.1,0.2,0.1c-0.1,0-0.3,0.1-0.3,0.2c-0.1,0.1-0.2,0.2-0.3,0.2
			c-0.1,0-0.1,0,0-0.1c0.3-0.1,0-0.3-0.3-0.3c-0.2,0-0.3,0-0.3-0.1c0,0-0.1,0-0.2,0c-0.1,0-0.3,0-0.4,0
			C314.2,117.8,314.2,117.8,314.5,117.7C314.4,117.7,314.5,117.7,314.5,117.7L314.5,117.7z M312.2,117.7c0.2,0,0.4,0,0.6,0.1
			c0.3,0.1,0.2,0.1-0.3,0.2c-0.3,0.1-0.5,0.1-0.4,0.1c0.2,0,0.2,0.1-0.2,0.2c-0.5,0.1-1.1,0-1.1-0.2
			C310.9,117.9,311.5,117.7,312.2,117.7L312.2,117.7z M322.9,118c0.1,0,0.1,0,0.2,0c0,0,0,0.2-0.2,0.3c-0.1,0.1-0.3,0.2-0.3,0.2
			c0,0-0.1-0.1-0.2,0c-0.1,0-0.1,0.1,0,0.1c0.1,0,0.1,0.1,0,0.2c-0.1,0.1-0.7,0.2-1.3,0.2c-0.6,0-1,0-0.8,0c0.3-0.1,0.3-0.1-0.1-0.1
			c-0.2,0-0.4-0.1-0.4-0.1c-0.1-0.1-0.7-0.1-0.7,0.1c0,0.1-0.1,0.1-0.3,0.1c-0.2,0-0.2,0,0-0.1c0.1,0,0.2-0.1,0.2-0.1
			c0-0.1,2.5-0.2,2.6,0c0,0.1,0.1,0.1,0.1,0c0-0.1,0.1-0.1,0.2,0c0.1,0.1,0.2,0,0.3-0.2C322.4,118.1,322.7,118,322.9,118L322.9,118z
			 M320.7,118c0.2,0,0.2,0,0.1,0.1c-0.2,0.2-0.3,0.2-0.3,0C320.5,118.1,320.6,118,320.7,118L320.7,118z M319.3,118c0.1,0,0,0,0,0.1
			c-0.1,0.1-0.2,0.1-0.2,0.1c-0.1,0,0,0,0-0.1C319.1,118.1,319.2,118,319.3,118L319.3,118z M319.8,118c0.1,0,0.1,0.1,0,0.2
			c-0.1,0.2-0.2,0.1-0.1,0C319.7,118.1,319.7,118,319.8,118L319.8,118z M314.8,118.1c0.2,0,0.2,0,0.1,0.1c-0.1,0.1-0.2,0.1-0.2,0
			c-0.1-0.1-0.1-0.1-0.1-0.1C314.5,118.1,314.6,118.1,314.8,118.1z M314.2,118.1c0.1,0,0,0-0.1,0.1c-0.1,0-0.2,0.1-0.2,0.2
			c0,0.1-0.1,0.1-0.1,0.1c-0.2,0,0.1-0.3,0.4-0.3C314.1,118.1,314.2,118.1,314.2,118.1L314.2,118.1z M312.6,118.2
			c-0.1,0-0.1,0,0,0.1c0.1,0.1,0,0.2-0.3,0.2c-0.2,0-0.3,0.1-0.3,0.2c0.1,0.1,0.1,0.1-0.1,0.1c-0.2,0-0.2,0.1-0.1,0.1
			c0.1,0,0.2,0,0.4,0c0.1-0.1,0.2-0.1,0.2-0.2c0,0,0.1-0.1,0.3-0.2c0.2-0.1,0.3-0.1,0.2-0.1c-0.1,0-0.1-0.1-0.1-0.1
			C312.8,118.2,312.7,118.2,312.6,118.2C312.6,118.2,312.6,118.2,312.6,118.2L312.6,118.2z M317.5,118.5c0.1,0,0.1,0,0.1,0
			c0,0-0.1,0.1-0.3,0.1c-0.2,0-0.3,0-0.4,0c0,0,0.1-0.1,0.3-0.1C317.3,118.5,317.4,118.5,317.5,118.5L317.5,118.5z M319,118.5
			c0.1,0,0,0-0.1,0.1c-0.1,0-0.2,0.1-0.2,0.2c0,0.1-0.1,0.1-0.1,0.1c-0.2,0,0.1-0.3,0.4-0.3C318.9,118.5,318.9,118.5,319,118.5
			L319,118.5z M318,118.5C318.3,118.5,318.3,118.5,318,118.5c-0.2,0.1-0.4,0.1-0.3,0C317.8,118.5,317.9,118.5,318,118.5L318,118.5z
			 M316.4,118.5c0.1,0,0.1,0,0.1,0c0,0-0.1,0.1-0.3,0.1c-0.2,0-0.3,0-0.4,0c0,0,0.1-0.1,0.3-0.1
			C316.2,118.5,316.3,118.5,316.4,118.5L316.4,118.5z M323.5,118.7l-0.5,0.1c-0.4,0.1-0.5,0.1-0.3,0.2c0.2,0.1,0.2,0.1-0.1,0.1
			c-0.4,0.1-0.4,0.1-0.2-0.2c0.1-0.1,0.4-0.2,0.7-0.2L323.5,118.7z M319.7,118.9C319.7,118.9,319.7,118.9,319.7,118.9
			c0.1,0-0.1,0.1-0.3,0.1c-0.2,0-0.4,0-0.5,0c0,0,0.1-0.1,0.4-0.1C319.4,118.9,319.6,118.9,319.7,118.9L319.7,118.9z M323.7,118.9
			c0,0,0,0.1,0,0.2c0,0.1,0,0.3,0.1,0.3c0.1,0,0.1,0,0,0.1c-0.1,0-0.2,0-0.2,0C323.6,119.4,323.6,119,323.7,118.9
			C323.7,118.9,323.7,118.9,323.7,118.9L323.7,118.9z M313.4,119C313.4,119.1,313.4,119.1,313.4,119c0,0.2-0.3,0.3-0.8,0.3
			c-0.4,0-0.7,0.1-0.6,0.1c0.4,0,0.3,0.2-0.1,0.2c-0.2,0,0,0.1,0.4,0.1c0.8,0,1.8-0.2,1.4-0.2c-0.1,0-0.2-0.1-0.3-0.3
			C313.4,119.1,313.4,119,313.4,119L313.4,119z M321.7,119.1C322,119.1,322,119.1,321.7,119.1c-0.2,0.1-0.4,0.1-0.3,0
			C321.4,119.1,321.6,119.1,321.7,119.1L321.7,119.1z M317.1,119.1c-0.1,0-0.3,0-0.5,0c-0.4,0-0.6,0.1-0.5,0.1
			c0.2,0.1,0.1,0.1-0.3,0.2c-0.4,0.1-0.5,0.1-0.3,0.2c0.2,0.1,0.2,0.1,0,0.1v0c-0.2,0-0.2,0.1,0.1,0.2c0.2,0.1,0.3,0.1,0.2-0.1
			c-0.1-0.2-0.1-0.2,0.3-0.3c0.4-0.1,0.6,0,0.4,0.2c-0.1,0.1-0.2,0.1-0.4,0c-0.2-0.1-0.2-0.1-0.2,0.1c0.1,0.1,0.5,0.1,1.1,0
			c0.6-0.1,1.3-0.1,1.6-0.1c0.8,0,2.2-0.1,1.9-0.2c-0.1,0-0.9,0-1.7,0c-0.8,0-1.6,0.1-1.8,0.1c-0.2,0-0.4,0-0.4,0
			c0,0,0.1-0.1,0.4-0.1c0.4,0,0.5,0,0.4-0.2C317.5,119.1,317.5,119.1,317.1,119.1L317.1,119.1z M319.9,119.1c0.1,0,0.1,0,0.1,0
			c0,0-0.1,0.1-0.3,0.1c-0.2,0-0.3,0-0.4,0c0,0,0.1-0.1,0.3-0.1C319.7,119.1,319.8,119.1,319.9,119.1L319.9,119.1z M315.2,119.2
			c-0.1,0-0.1,0-0.2,0c-0.3,0-0.5,0.1-0.5,0.1c0.1,0,0.3,0.1,0.6,0c0.3,0,0.5-0.1,0.5-0.1C315.6,119.2,315.4,119.2,315.2,119.2
			L315.2,119.2z M318.7,119.2C318.7,119.2,318.7,119.2,318.7,119.2c0.1,0-0.1,0.1-0.3,0.1c-0.2,0-0.4,0-0.5,0c0,0,0.1-0.1,0.4-0.1
			C318.4,119.2,318.6,119.2,318.7,119.2L318.7,119.2z M310.8,119.3c0.2,0,0.4,0,0.5,0.1c0.1,0.1,0.1,0.1-0.1,0.1
			c-0.1,0-0.2,0-0.3-0.1c0-0.1-0.1-0.1-0.2,0c-0.1,0-0.2,0-0.2,0C310.5,119.3,310.6,119.3,310.8,119.3L310.8,119.3z M317.1,119.3
			c0.2,0,0.3,0,0.3,0.1c0,0-0.1,0.1-0.3,0.1c-0.6,0-0.8-0.1-0.3-0.1C316.9,119.3,317,119.3,317.1,119.3L317.1,119.3z M313.4,119.4
			c0.2,0,0.1,0-0.2,0.1c-0.2,0.1-0.5,0.1-0.6,0.1c-0.2,0-0.1-0.1,0.3-0.1C313.1,119.4,313.3,119.4,313.4,119.4L313.4,119.4z
			 M315,119.5C314.9,119.5,314.9,119.5,315,119.5c-0.2,0-0.3,0.1-0.2,0.1c0.1,0.1,0.4,0,0.4-0.1C315.1,119.5,315,119.4,315,119.5
			L315,119.5z M314.5,119.5c0,0-0.1,0-0.1,0c-0.3,0-0.3,0,0,0.2c0.2,0.1,0.3,0.2,0.4,0.1c0.1,0,0.1,0,0,0c-0.1,0-0.1-0.1-0.1-0.2
			C314.6,119.5,314.6,119.5,314.5,119.5L314.5,119.5z M324,119.5C324.1,119.5,324.1,119.6,324,119.5c0,0.1,0.1,0.2,0.1,0.2
			c0.1,0,0.1,0.1,0.1,0.1c0,0.1-0.1,0.1-0.2,0c-0.1-0.1-0.2-0.2-0.4-0.2c-0.2,0-0.2,0,0.1-0.1C323.9,119.6,324,119.5,324,119.5
			L324,119.5z M324.5,120.1l-0.3,0.3c-0.1,0.2-0.3,0.3-0.3,0.3c0,0,0-0.1-0.1-0.2c-0.1-0.2-0.1-0.2,0.3-0.3L324.5,120.1z
			 M298.4,120.1C298.4,120.1,298.3,120.1,298.4,120.1c-0.1,0-0.1,0.1-0.1,0.1s0.2,0.1,0.2,0c0.1,0,0.1-0.1,0-0.1
			C298.5,120.1,298.4,120.1,298.4,120.1L298.4,120.1z M295.7,120.1c-0.2,0-0.4,0-0.4,0c-0.1,0.1,0.8,0.1,1,0c0.1,0-0.1-0.1-0.4-0.1
			C295.8,120.1,295.7,120.1,295.7,120.1L295.7,120.1z M310.7,120.1c0.1,0,0.1,0,0,0.1c-0.1,0.1,0,0.1,0,0.1c0.1,0,0.1,0,0.1,0.1
			c0,0-0.1,0.1-0.2,0.1c-0.1,0.1-0.2,0-0.1-0.2C310.6,120.3,310.7,120.2,310.7,120.1L310.7,120.1z M299.4,120.2c-0.1,0-0.2,0-0.2,0
			c-0.1,0.1,0.5,0.1,0.7,0.1c0.2,0,0.1-0.1-0.2-0.1C299.6,120.2,299.5,120.2,299.4,120.2L299.4,120.2z M301.3,120.2c0,0-0.1,0-0.1,0
			c-0.1,0-0.1,0.1,0,0.1c0.1,0,0.1,0,0.2,0C301.3,120.3,301.4,120.2,301.3,120.2C301.3,120.2,301.3,120.2,301.3,120.2L301.3,120.2z
			 M300.6,120.2c0,0-0.1,0-0.1,0c-0.3,0-0.3,0,0,0.1c0.2,0,0.3,0,0.3,0C300.8,120.3,300.7,120.2,300.6,120.2L300.6,120.2z
			 M303,120.3c-0.1,0-0.2,0-0.2,0c-0.1,0.1,0.4,0.2,0.7,0.1c0.2-0.1,0.2-0.1-0.2-0.1C303.2,120.3,303.1,120.3,303,120.3L303,120.3z
			 M305.4,120.4c-0.2,0-0.5,0-0.5,0.1c0,0,0.1,0.1,0.4,0.1c0.4,0,0.7,0,0.6-0.1C305.8,120.4,305.6,120.4,305.4,120.4L305.4,120.4z
			 M304.3,120.4c0,0-0.1,0-0.1,0c-0.3,0-0.3,0,0,0.1c0.2,0,0.3,0,0.3,0C304.5,120.4,304.4,120.4,304.3,120.4L304.3,120.4z
			 M317.7,120.5c0,0,0.2,0,0.4,0l0.4,0l-0.3,0.1C318,120.6,317.8,120.6,317.7,120.5C317.7,120.6,317.7,120.5,317.7,120.5
			L317.7,120.5z"/>
		<text transform="matrix(0.7645 0 0 0.7645 249.1253 129.9509)" class="st2 st9">2 Stripped Wires</text>
		<path id="path3705" inkscape:connector-curvature="0" class="st12" d="M144.9,105.3V74.2"/>
		<text transform="matrix(0.7645 0 0 0.7645 150.1174 89.8572)" class="st2 st9">USB (serial over USB)</text>
		<text transform="matrix(0.7645 0 0 0.7645 124.8051 65.2676)" class="st2 st3">relay.py</text>
		<text transform="matrix(0.7645 0 0 0.7645 124.8753 141.2013)" class="st2 st9">relay_sketch.ino</text>
		<text transform="matrix(0.7645 0 0 0.7645 330.1848 119.477)" class="st2 st3">24VDC 100mA</text>
		<text transform="matrix(0.7645 0 0 0.7645 330.1848 151.3886)" class="st2 st3">Solenoid Valve</text>
		<text transform="matrix(0.7645 0 0 0.7645 330.5401 126.8827)" class="st2 st9">Polarity doesn&apos;t matter</text>
		<text transform="matrix(0.7645 0 0 0.7645 330.5401 158.1807)" class="st2 st9">Polarity doesn&apos;t matter</text>
	</g>
</g>
</svg>
